<svg xmlns="http://www.w3.org/2000/svg" version="1.1" xmlns:xlink="http://www.w3.org/1999/xlink" width="200" height="200"><svg xmlns="http://www.w3.org/2000/svg" version="1.1" xmlns:xlink="http://www.w3.org/1999/xlink" width="200" height="200"><svg xmlns="http://www.w3.org/2000/svg" version="1.1" xmlns:xlink="http://www.w3.org/1999/xlink" viewBox="0 0 200 200"><rect width="200" height="200" fill="url('#gradient')"></rect><defs><linearGradient id="gradient" gradientTransform="rotate(45 0.5 0.5)"><stop offset="0%" stop-color="#472027"></stop><stop offset="100%" stop-color="#192025"></stop></linearGradient></defs><g><g fill="#f3bd7d" transform="matrix(2.05576622797234,0,0,2.05576622797234,7.30760747748721,111.35556894430432)" stroke="#c06a3e" stroke-width="0.2"><path d="M4.73-14.22L4.73 0L1.31 0L1.31-14.22L4.73-14.22ZM6.89-10.57L9.98-10.57L10.09-9.33Q11.18-10.76 13.11-10.76L13.11-10.76Q14.76-10.76 15.57-9.78Q16.39-8.79 16.42-6.81L16.42-6.81L16.42 0L13.12 0L13.12-6.67Q13.12-7.47 12.79-7.85Q12.47-8.22 11.62-8.22L11.62-8.22Q10.65-8.22 10.19-7.46L10.19-7.46L10.19 0L6.89 0L6.89-10.57ZM22.27 0L18.96 0L18.96-8.28L17.43-8.28L17.43-10.57L18.96-10.57L18.96-11.41Q18.96-13.21 20.03-14.21Q21.09-15.21 23.02-15.21L23.02-15.21Q23.72-15.21 24.56-15L24.56-15L24.57-12.58Q24.27-12.67 23.76-12.67L23.76-12.67Q22.27-12.67 22.27-11.38L22.27-11.38L22.27-10.57L24.33-10.57L24.33-8.28L22.27-8.28L22.27 0ZM28.96-10.57L28.96 0L25.65 0L25.65-10.57L28.96-10.57ZM25.46-13.29L25.46-13.29Q25.46-13.99 25.97-14.44Q26.47-14.89 27.29-14.89Q28.10-14.89 28.60-14.44Q29.11-13.99 29.11-13.29Q29.11-12.59 28.60-12.14Q28.10-11.69 27.29-11.69Q26.47-11.69 25.97-12.14Q25.46-12.59 25.46-13.29ZM36.75-4.82L34.56-4.82L34.56 0L31.13 0L31.13-14.22L36.81-14.22Q38.44-14.22 39.69-13.62Q40.95-13.02 41.64-11.91Q42.32-10.80 42.32-9.39L42.32-9.39Q42.32-7.31 40.83-6.07Q39.35-4.82 36.75-4.82L36.75-4.82ZM34.56-11.57L34.56-7.47L36.81-7.47Q37.80-7.47 38.33-7.97Q38.85-8.47 38.85-9.38L38.85-9.38Q38.85-10.37 38.31-10.97Q37.77-11.56 36.85-11.57L36.85-11.57L34.56-11.57ZM50.45-10.64L50.39-7.59L49.31-7.67Q47.75-7.67 47.31-6.69L47.31-6.69L47.31 0L44.02 0L44.02-10.57L47.11-10.57L47.22-9.21Q48.05-10.76 49.53-10.76L49.53-10.76Q50.06-10.76 50.45-10.64L50.45-10.64ZM50.82-4.82L50.81-5.38Q50.81-6.96 51.43-8.20Q52.04-9.43 53.19-10.10Q54.35-10.76 55.90-10.76L55.90-10.76Q58.27-10.76 59.64-9.29Q61.01-7.82 61.01-5.29L61.01-5.29L61.01-5.18Q61.01-2.71 59.63-1.25Q58.26 0.20 55.92 0.20L55.92 0.20Q53.66 0.20 52.29-1.16Q50.93-2.51 50.82-4.82L50.82-4.82ZM54.11-5.77L54.10-5.18Q54.10-3.71 54.56-3.03Q55.02-2.34 55.92-2.34L55.92-2.34Q57.68-2.34 57.71-5.05L57.71-5.05L57.71-5.38Q57.71-8.22 55.90-8.22L55.90-8.22Q54.25-8.22 54.11-5.77L54.11-5.77ZM65.93-10.57L65.93 0L62.63 0L62.63-10.57L65.93-10.57ZM62.43-13.29L62.43-13.29Q62.43-13.99 62.94-14.44Q63.45-14.89 64.26-14.89Q65.07-14.89 65.58-14.44Q66.08-13.99 66.08-13.29Q66.08-12.59 65.58-12.14Q65.07-11.69 64.26-11.69Q63.45-11.69 62.94-12.14Q62.43-12.59 62.43-13.29ZM67.89-10.57L70.98-10.57L71.08-9.33Q72.18-10.76 74.10-10.76L74.10-10.76Q75.75-10.76 76.57-9.78Q77.38-8.79 77.41-6.81L77.41-6.81L77.41 0L74.11 0L74.11-6.67Q74.11-7.47 73.79-7.85Q73.47-8.22 72.62-8.22L72.62-8.22Q71.65-8.22 71.18-7.46L71.18-7.46L71.18 0L67.89 0L67.89-10.57ZM78.85-5.24L78.85-5.36Q78.85-6.96 79.38-8.19Q79.90-9.42 80.89-10.09Q81.88-10.76 83.18-10.76L83.18-10.76Q84.83-10.76 85.76-9.65L85.76-9.65L85.88-10.57L88.87-10.57L88.87-0.40Q88.87 1.00 88.22 2.03Q87.57 3.06 86.34 3.61Q85.11 4.16 83.49 4.16L83.49 4.16Q82.32 4.16 81.24 3.72Q80.15 3.28 79.57 2.58L79.57 2.58L80.95 0.64Q81.87 1.73 83.37 1.73L83.37 1.73Q85.56 1.73 85.56-0.52L85.56-0.52L85.56-0.85Q84.61 0.20 83.16 0.20L83.16 0.20Q81.23 0.20 80.04-1.28Q78.85-2.76 78.85-5.24L78.85-5.24ZM82.15-5.16L82.15-5.16Q82.15-3.86 82.64-3.10Q83.13-2.34 84.00-2.34L84.00-2.34Q85.07-2.34 85.56-3.06L85.56-3.06L85.56-7.50Q85.08-8.22 84.02-8.22L84.02-8.22Q83.14-8.22 82.65-7.44Q82.15-6.65 82.15-5.16Z"></path></g></g></svg></svg><style>@media (prefers-color-scheme: light) { :root { filter: none; } }
@media (prefers-color-scheme: dark) { :root { filter: none; } }
</style></svg>